<mxfile host="65bd71144e">
    <diagram id="2q2epZX2eIwb9djMBO-X" name="第 1 页">
        <mxGraphModel dx="1888" dy="865" grid="1" gridSize="10" guides="1" tooltips="1" connect="1" arrows="1" fold="1" page="1" pageScale="1" pageWidth="827" pageHeight="1169" math="0" shadow="0">
            <root>
                <mxCell id="0"/>
                <mxCell id="1" parent="0"/>
                <mxCell id="2" value="Shader" style="swimlane;whiteSpace=wrap;html=1;" parent="1" vertex="1">
                    <mxGeometry x="214" y="350" width="176" height="170" as="geometry"/>
                </mxCell>
                <mxCell id="9" value="&lt;span style=&quot;color: rgb(86, 156, 214); font-family: Menlo, Monaco, &amp;quot;Courier New&amp;quot;, monospace;&quot;&gt;-&amp;nbsp;&lt;/span&gt;&lt;font color=&quot;#9cdcfe&quot;&gt;gl&lt;/font&gt;&lt;br&gt;&lt;span style=&quot;color: rgb(86, 156, 214); font-family: Menlo, Monaco, &amp;quot;Courier New&amp;quot;, monospace;&quot;&gt;-&amp;nbsp;&lt;/span&gt;&lt;span style=&quot;color: rgb(156, 220, 254); background-color: rgb(31, 31, 31); font-family: Menlo, Monaco, &amp;quot;Courier New&amp;quot;, monospace;&quot;&gt;&lt;font style=&quot;font-size: 12px;&quot;&gt;program&lt;/font&gt;&lt;/span&gt;" style="text;html=1;align=left;verticalAlign=middle;resizable=0;points=[];autosize=1;strokeColor=none;fillColor=none;fontSize=12;fontColor=#4EC9B0;" parent="2" vertex="1">
                    <mxGeometry x="21" y="40" width="90" height="40" as="geometry"/>
                </mxCell>
                <mxCell id="10" value="在shader这个类中&lt;br&gt;会读取相应的shader，&lt;br&gt;并且将shader链接到&lt;br&gt;对应的shaderLocations中" style="text;html=1;align=left;verticalAlign=middle;resizable=0;points=[];autosize=1;strokeColor=none;fillColor=none;fontSize=12;fontColor=#9CDCFE;" parent="2" vertex="1">
                    <mxGeometry x="16" y="90" width="160" height="70" as="geometry"/>
                </mxCell>
                <mxCell id="3" value="Mateial&lt;br&gt;" style="swimlane;whiteSpace=wrap;html=1;" parent="1" vertex="1">
                    <mxGeometry x="440" y="20" width="210" height="270" as="geometry"/>
                </mxCell>
                <mxCell id="8" value="+ Shader &lt;font color=&quot;#dcdcaa&quot;&gt;Compile&lt;/font&gt;(gl)" style="text;html=1;align=left;verticalAlign=middle;resizable=0;points=[];autosize=1;strokeColor=none;fillColor=none;fontColor=#4EC9B0;" parent="3" vertex="1">
                    <mxGeometry x="10" y="200" width="140" height="30" as="geometry"/>
                </mxCell>
                <mxCell id="7" value="&lt;div style=&quot;color: rgb(204, 204, 204); font-family: Menlo, Monaco, &amp;quot;Courier New&amp;quot;, monospace; line-height: 21px;&quot;&gt;&lt;span style=&quot;color: rgb(156, 220, 254);&quot;&gt;&lt;font style=&quot;font-size: 12px;&quot;&gt;-uniforms&lt;/font&gt;&lt;/span&gt;&lt;/div&gt;&lt;div style=&quot;font-family: Menlo, Monaco, &amp;quot;Courier New&amp;quot;, monospace; line-height: 21px;&quot;&gt;&lt;div style=&quot;color: rgb(204, 204, 204); line-height: 21px;&quot;&gt;&lt;span style=&quot;color: #9cdcfe;&quot;&gt;&lt;font style=&quot;font-size: 12px;&quot;&gt;-attribs&lt;/font&gt;&lt;/span&gt;&lt;/div&gt;&lt;div style=&quot;line-height: 21px;&quot;&gt;&lt;div style=&quot;line-height: 21px;&quot;&gt;&lt;font style=&quot;font-size: 12px;&quot;&gt;&lt;font style=&quot;font-size: 12px;&quot; color=&quot;#4ec9b0&quot;&gt;-String&lt;/font&gt;&lt;span style=&quot;color: rgb(156, 220, 254);&quot;&gt; #vsSrc&lt;/span&gt;&lt;/font&gt;&lt;/div&gt;&lt;div style=&quot;line-height: 21px;&quot;&gt;&lt;div style=&quot;line-height: 21px;&quot;&gt;&lt;font style=&quot;font-size: 12px;&quot;&gt;&lt;font style=&quot;font-size: 12px;&quot; color=&quot;#4ec9b0&quot;&gt;-String&lt;/font&gt;&lt;span style=&quot;color: rgb(156, 220, 254);&quot;&gt;&amp;nbsp;&lt;/span&gt;&lt;span style=&quot;color: rgb(156, 220, 254);&quot;&gt;#fsSrc&lt;/span&gt;&lt;/font&gt;&lt;/div&gt;&lt;div style=&quot;color: rgb(204, 204, 204); line-height: 21px;&quot;&gt;&lt;div style=&quot;line-height: 21px;&quot;&gt;&lt;font style=&quot;font-size: 12px;&quot;&gt;&lt;span style=&quot;color: #569cd6;&quot;&gt;-&lt;/span&gt;&lt;span style=&quot;color: #9cdcfe;&quot;&gt;#flatten_uniforms&lt;/span&gt;&lt;/font&gt;&lt;/div&gt;&lt;div style=&quot;line-height: 21px;&quot;&gt;&lt;div style=&quot;line-height: 21px;&quot;&gt;&lt;font style=&quot;font-size: 12px;&quot;&gt;&lt;span style=&quot;color: #569cd6;&quot;&gt;-&lt;/span&gt;&lt;span style=&quot;color: #9cdcfe;&quot;&gt;#flatten_attribs&lt;/span&gt;&lt;/font&gt;&lt;/div&gt;&lt;div style=&quot;line-height: 21px;&quot;&gt;&lt;div style=&quot;line-height: 21px;&quot;&gt;&lt;font style=&quot;font-size: 12px;&quot;&gt;&lt;span style=&quot;color: rgb(86, 156, 214);&quot;&gt;-&lt;/span&gt;&lt;span style=&quot;color: rgb(156, 220, 254);&quot;&gt;frameBuffer&lt;/span&gt;&lt;/font&gt;&lt;/div&gt;&lt;/div&gt;&lt;/div&gt;&lt;/div&gt;&lt;/div&gt;&lt;/div&gt;&lt;/div&gt;" style="text;html=1;align=left;verticalAlign=middle;resizable=0;points=[];autosize=1;strokeColor=none;fillColor=none;" parent="1" vertex="1">
                    <mxGeometry x="450" y="50" width="150" height="160" as="geometry"/>
                </mxCell>
                <mxCell id="11" value="Mesh" style="swimlane;whiteSpace=wrap;html=1;" parent="1" vertex="1">
                    <mxGeometry x="474" y="350" width="156" height="170" as="geometry"/>
                </mxCell>
                <mxCell id="12" value="&lt;font style=&quot;&quot;&gt;&lt;span style=&quot;font-size: 12px; color: rgb(86, 156, 214); font-family: Menlo, Monaco, &amp;quot;Courier New&amp;quot;, monospace;&quot;&gt;-&amp;nbsp;&lt;/span&gt;&lt;span style=&quot;color: rgb(156, 220, 254); background-color: rgb(31, 31, 31); font-family: Menlo, Monaco, &amp;quot;Courier New&amp;quot;, monospace;&quot;&gt;&lt;font style=&quot;font-size: 12px;&quot;&gt;indices&lt;/font&gt;&lt;/span&gt;&lt;span style=&quot;font-size: 12px; color: rgb(86, 156, 214); font-family: Menlo, Monaco, &amp;quot;Courier New&amp;quot;, monospace;&quot;&gt;&lt;br&gt;&lt;/span&gt;&lt;span style=&quot;font-size: 12px; color: rgb(86, 156, 214); font-family: Menlo, Monaco, &amp;quot;Courier New&amp;quot;, monospace;&quot;&gt;-&amp;nbsp;&lt;/span&gt;&lt;span style=&quot;font-size: 12px; font-family: Menlo, Monaco, &amp;quot;Courier New&amp;quot;, monospace; color: rgb(156, 220, 254);&quot;&gt;vertices&lt;/span&gt;&lt;br&gt;&lt;span style=&quot;font-size: 12px; color: rgb(86, 156, 214); font-family: Menlo, Monaco, &amp;quot;Courier New&amp;quot;, monospace;&quot;&gt;-&amp;nbsp;&lt;/span&gt;&lt;span style=&quot;font-size: 12px; font-family: Menlo, Monaco, &amp;quot;Courier New&amp;quot;, monospace; color: rgb(156, 220, 254);&quot;&gt;normals&lt;br&gt;-&amp;nbsp;&lt;/span&gt;&lt;span style=&quot;font-size: 12px; font-family: Menlo, Monaco, &amp;quot;Courier New&amp;quot;, monospace; color: rgb(156, 220, 254);&quot;&gt;texcoords&lt;/span&gt;&lt;/font&gt;" style="text;html=1;align=left;verticalAlign=middle;resizable=0;points=[];autosize=1;strokeColor=none;fillColor=none;fontSize=12;fontColor=#4EC9B0;" parent="11" vertex="1">
                    <mxGeometry x="21" y="25" width="100" height="70" as="geometry"/>
                </mxCell>
                <mxCell id="13" value="所有的点的索引，点，&lt;br&gt;点的向量，点的uv" style="text;html=1;align=left;verticalAlign=middle;resizable=0;points=[];autosize=1;strokeColor=none;fillColor=none;fontSize=12;fontColor=#9CDCFE;" parent="11" vertex="1">
                    <mxGeometry x="8" y="110" width="140" height="40" as="geometry"/>
                </mxCell>
                <mxCell id="15" value="MeshRender" style="swimlane;whiteSpace=wrap;html=1;" vertex="1" parent="1">
                    <mxGeometry x="390" y="650" width="180" height="130" as="geometry"/>
                </mxCell>
                <mxCell id="17" value="&lt;div style=&quot;color: rgb(204, 204, 204); font-family: Menlo, Monaco, &amp;quot;Courier New&amp;quot;, monospace; line-height: 21px;&quot;&gt;&lt;span style=&quot;color: rgb(156, 220, 254);&quot;&gt;&lt;font style=&quot;font-size: 12px;&quot;&gt;-mesh&lt;/font&gt;&lt;/span&gt;&lt;/div&gt;&lt;div style=&quot;font-family: Menlo, Monaco, &amp;quot;Courier New&amp;quot;, monospace; line-height: 21px;&quot;&gt;&lt;div style=&quot;color: rgb(204, 204, 204); line-height: 21px;&quot;&gt;&lt;span style=&quot;color: #9cdcfe;&quot;&gt;&lt;font style=&quot;font-size: 12px;&quot;&gt;-material&lt;/font&gt;&lt;/span&gt;&lt;/div&gt;&lt;div style=&quot;color: rgb(204, 204, 204); line-height: 21px;&quot;&gt;&lt;span style=&quot;color: #9cdcfe;&quot;&gt;&lt;font style=&quot;font-size: 12px;&quot;&gt;&lt;br&gt;&lt;/font&gt;&lt;/span&gt;&lt;/div&gt;&lt;div style=&quot;line-height: 21px;&quot;&gt;&lt;div style=&quot;line-height: 21px;&quot;&gt;&lt;span style=&quot;color: rgb(78, 201, 176); font-family: Helvetica;&quot;&gt;+ Shader&amp;nbsp;&lt;/span&gt;&lt;font style=&quot;font-family: Helvetica;&quot; color=&quot;#dcdcaa&quot;&gt;Compile&lt;/font&gt;&lt;span style=&quot;color: rgb(78, 201, 176); font-family: Helvetica;&quot;&gt;(gl)&lt;/span&gt;&lt;br&gt;&lt;/div&gt;&lt;/div&gt;&lt;/div&gt;" style="text;html=1;align=left;verticalAlign=middle;resizable=0;points=[];autosize=1;strokeColor=none;fillColor=none;" vertex="1" parent="15">
                    <mxGeometry x="10" y="30" width="140" height="100" as="geometry"/>
                </mxCell>
                <mxCell id="18" value="program(是一个json字典）&lt;br&gt;{&lt;br&gt;&amp;nbsp;glShaderProgram:gl_program_ptr&lt;br&gt;&lt;span style=&quot;&quot;&gt;&lt;/span&gt;&amp;nbsp;uniform:&lt;br&gt;&lt;span style=&quot;&quot;&gt;&lt;/span&gt;&amp;nbsp; [&lt;br&gt;&lt;span style=&quot;&quot;&gt;&lt;/span&gt;&lt;span style=&quot;&quot;&gt;&lt;/span&gt;&amp;nbsp; &amp;nbsp;&quot;name1&quot;:gl_uniform_ptr1&lt;br&gt;&amp;nbsp; &amp;nbsp;&quot;name2&quot;:gl_uniform_ptr2&lt;br&gt;&lt;span style=&quot;&quot;&gt;&lt;/span&gt;&amp;nbsp; ],&lt;br&gt;&lt;span style=&quot;&quot;&gt;&lt;/span&gt;&amp;nbsp;attribs:&lt;br&gt;&lt;span style=&quot;&quot;&gt;&lt;/span&gt;&amp;nbsp;[&lt;br&gt;&amp;nbsp; &amp;nbsp;name1:gl_attribs_ptr1&lt;br&gt;&amp;nbsp; &amp;nbsp;name2:gl_attribs_ptr2&lt;br&gt;&lt;span style=&quot;&quot;&gt;&lt;/span&gt;&amp;nbsp;],&lt;br&gt;}" style="rounded=0;whiteSpace=wrap;html=1;align=left;" vertex="1" parent="1">
                    <mxGeometry x="-20" y="310" width="210" height="230" as="geometry"/>
                </mxCell>
                <mxCell id="19" value="struct program&lt;br&gt;{&lt;br&gt;&lt;blockquote style=&quot;margin: 0 0 0 40px; border: none; padding: 0px;&quot;&gt;&lt;/blockquote&gt;&amp;nbsp; gl_program&amp;amp; glShaderProgram;&lt;br&gt;&lt;blockquote style=&quot;margin: 0 0 0 40px; border: none; padding: 0px;&quot;&gt;&lt;/blockquote&gt;&amp;nbsp; Dict&amp;lt;string,gl_uniform&amp;gt; uniform;&lt;br&gt;&amp;nbsp; Dict&amp;lt;string,gl_attribs&amp;gt;&amp;nbsp;&amp;nbsp;attribs;&lt;br&gt;&lt;span style=&quot;&quot;&gt;&lt;/span&gt;}" style="rounded=0;whiteSpace=wrap;html=1;align=left;" vertex="1" parent="1">
                    <mxGeometry x="-310" y="370" width="230" height="150" as="geometry"/>
                </mxCell>
            </root>
        </mxGraphModel>
    </diagram>
</mxfile>